<svg width="400" height="400" viewBox="0 0 400 400" xmlns="http://www.w3.org/2000/svg"><title>bg-curl</title><path d="M117.39 106.549a8.62 8.62 0 0 0-.282 1.49 9.554 9.554 0 0 0 .065 2.362c.207 1.367.602 2.458 1.046 3.475.902 2.014 2.043 3.683 3.284 5.23a35.828 35.828 0 0 0 4.045 4.222 40.436 40.436 0 0 0 9.65 6.377 34.499 34.499 0 0 0 5.572 2.058 28.88 28.88 0 0 0 6.13.998c2.146.106 4.402-.04 6.759-.582a23.938 23.938 0 0 0 6.595-2.628 38 38 0 0 1 .836 5.163c.226 2.461.23 4.842.097 7.044a61.784 61.784 0 0 1-1.563 10.53c-.593 2.484-1.055 3.818-1.055 3.818s.147-.325.403-.964a52.41 52.41 0 0 0 1.045-2.847c.42-1.254.9-2.807 1.373-4.64a60.51 60.51 0 0 0 1.285-6.29c.355-2.345.6-4.928.628-7.667a42.502 42.502 0 0 0-.343-5.938l.58-.432.861-.687a32.315 32.315 0 0 0 3.332-3.169c2.13-2.338 4.028-5.21 5.303-8.264 1.277-3.05 1.93-6.185 2.04-9.017a25.075 25.075 0 0 0-.874-7.744 25.885 25.885 0 0 0-.674-2.077c.405-.427.793-.888 1.151-1.378a15.235 15.235 0 0 0 1.872-3.488 16.09 16.09 0 0 0 .878-3.378c.154-1.059.193-2.04.166-2.954a19.453 19.453 0 0 0-.767-4.802 23.578 23.578 0 0 0-1.454-3.773 25.205 25.205 0 0 0-1.745-3.057 33.802 33.802 0 0 0-3.674-4.603 36.663 36.663 0 0 0-3.352-3.14 47.387 47.387 0 0 0-2.65-2.045c-.736-.528-1.315-.904-1.706-1.159l-.595-.38.514.5c.34.328.834.83 1.47 1.491a49.44 49.44 0 0 1 5.062 6.24 36.474 36.474 0 0 1 2.918 5.114c.908 1.98 1.768 4.24 2.22 6.86.224 1.306.337 2.705.249 4.137a13.309 13.309 0 0 1-.303 2.137 9.92 9.92 0 0 1-.683 1.986 8.09 8.09 0 0 1-.482.876 10.07 10.07 0 0 1-.568.785 8.843 8.843 0 0 1-.262.305c-.075-.131-.148-.265-.226-.393a26.976 26.976 0 0 0-3.718-4.883c-2.75-2.857-5.937-4.99-9.317-6.568a36.683 36.683 0 0 0-5.21-1.962 30.756 30.756 0 0 0-1.337-.372l-.335-.088-.349-.084-.373-.08-.385-.069a7.89 7.89 0 0 0-1.709-.091 5.58 5.58 0 0 0-1.065.172c-.4.111-.849.265-1.4.614-.27.168-.572.404-.866.687-.298.288-.59.646-.837 1.026a6.467 6.467 0 0 0-.894 2.165 6.99 6.99 0 0 0-.15 1.54c.007.43.046.805.099 1.149.223 1.36.628 2.36 1.064 3.308.888 1.863 1.972 3.38 3.139 4.75 2.349 2.71 5.057 4.786 8.1 6.133 1.524.666 3.14 1.136 4.852 1.33 1.71.194 3.529.1 5.4-.383a15.076 15.076 0 0 0 1.761-.57l.176-.069.088-.035.123-.052.303-.132.15-.064.194-.09c.16-.075.317-.151.47-.23.258.667.487 1.353.684 2.061.538 1.951.818 4.07.723 6.277a19.372 19.372 0 0 1-1.49 6.666c-.912 2.173-2.248 4.218-3.864 5.998a25.15 25.15 0 0 1-2.603 2.471l-.695.555-.139.104a32.64 32.64 0 0 0-2.475-6.716c-.688-1.339-1.454-2.663-2.375-3.859-.92-1.2-2.03-2.208-3.163-3.22-4.536-4.063-10.482-6.792-17.218-8.333a73.133 73.133 0 0 0-2.565-.528l-1.31-.223-.669-.11-.655-.093c-1.843-.238-3.715-.38-5.833-.18-1.065.117-2.179.299-3.479.823a8.663 8.663 0 0 0-2.13 1.23 8.317 8.317 0 0 0-2.22 2.658 8.41 8.41 0 0 0-.67 1.665zm32.87-16.386c-1.04-1.57-1.949-3.38-2.528-5.442-.271-.973-.46-2.043-.474-3.025.337-.06.706-.083 1.075-.076l.338.018.342.031.193.024.167.027.371.058c.498.073.992.155 1.475.259 1.951.39 3.843.938 5.633 1.706 3.582 1.521 6.81 3.827 9.367 7.125a23.406 23.406 0 0 1 2.91 4.948c-.327.175-.654.34-.98.485-3.588 1.622-7.066 1.602-10.092.428-3.034-1.178-5.7-3.435-7.798-6.566zm-28.829 16.125c.04-.049.1-.12.208-.21.199-.182.534-.407.91-.595.762-.39 1.67-.65 2.564-.82 1.796-.329 3.623-.337 5.337-.226l.674.053.641.065 1.296.142c.853.11 1.696.235 2.523.376 6.606 1.153 12.217 3.64 16.245 7.555 1.005.982 1.862 2.11 2.685 3.22.831 1.099 1.636 2.186 2.316 3.378 1.032 1.807 1.83 3.772 2.425 5.818a22.796 22.796 0 0 1-5.08 2.405 21.728 21.728 0 0 1-6.168 1.045c-3.986.085-7.66-.85-11-2.34-3.338-1.5-6.36-3.573-8.999-6.095a29.299 29.299 0 0 1-3.608-4.161c-1.07-1.513-2.014-3.165-2.642-4.975-.312-.898-.54-1.854-.598-2.762a5.527 5.527 0 0 1 .043-1.214c.056-.337.13-.512.16-.56a.414.414 0 0 1 .068-.1zM241.39 276.549a8.62 8.62 0 0 0-.282 1.49 9.554 9.554 0 0 0 .065 2.362c.207 1.367.602 2.458 1.046 3.475.902 2.014 2.043 3.683 3.284 5.23a35.828 35.828 0 0 0 4.045 4.222 40.436 40.436 0 0 0 9.65 6.377 34.499 34.499 0 0 0 5.572 2.058 28.88 28.88 0 0 0 6.13.998c2.146.106 4.402-.04 6.759-.582a23.938 23.938 0 0 0 6.595-2.628 38 38 0 0 1 .836 5.163c.226 2.461.23 4.842.097 7.044a61.784 61.784 0 0 1-1.563 10.53c-.593 2.484-1.055 3.818-1.055 3.818s.147-.325.403-.964a52.41 52.41 0 0 0 1.045-2.847c.42-1.254.9-2.807 1.373-4.64a60.51 60.51 0 0 0 1.285-6.29c.355-2.345.6-4.928.628-7.667a42.502 42.502 0 0 0-.343-5.938l.58-.432.861-.687a32.315 32.315 0 0 0 3.332-3.169c2.13-2.338 4.028-5.21 5.303-8.264 1.277-3.05 1.93-6.185 2.04-9.017a25.075 25.075 0 0 0-.874-7.744 25.885 25.885 0 0 0-.674-2.077c.405-.427.793-.888 1.151-1.378a15.235 15.235 0 0 0 1.872-3.488 16.09 16.09 0 0 0 .878-3.378c.154-1.059.193-2.04.166-2.954a19.453 19.453 0 0 0-.767-4.802 23.578 23.578 0 0 0-1.454-3.773 25.205 25.205 0 0 0-1.745-3.057 33.802 33.802 0 0 0-3.674-4.603 36.663 36.663 0 0 0-3.352-3.14 47.387 47.387 0 0 0-2.65-2.045c-.736-.528-1.315-.904-1.706-1.159l-.595-.38.514.5c.34.328.834.83 1.47 1.491a49.44 49.44 0 0 1 5.062 6.24 36.474 36.474 0 0 1 2.918 5.114c.908 1.98 1.768 4.24 2.22 6.86.224 1.306.337 2.705.249 4.137a13.309 13.309 0 0 1-.303 2.137 9.92 9.92 0 0 1-.683 1.986 8.09 8.09 0 0 1-.482.876 10.07 10.07 0 0 1-.568.785 8.843 8.843 0 0 1-.262.305c-.075-.131-.148-.265-.226-.393a26.976 26.976 0 0 0-3.718-4.883c-2.75-2.857-5.937-4.99-9.317-6.568a36.683 36.683 0 0 0-5.21-1.962 30.756 30.756 0 0 0-1.337-.372l-.335-.088-.349-.084-.373-.08-.385-.069a7.89 7.89 0 0 0-1.709-.091 5.58 5.58 0 0 0-1.065.172c-.4.111-.849.265-1.4.614-.27.168-.572.404-.866.687-.298.288-.59.646-.837 1.026a6.467 6.467 0 0 0-.894 2.165 6.99 6.99 0 0 0-.15 1.54c.007.43.046.805.099 1.149.223 1.36.628 2.36 1.064 3.308.888 1.863 1.972 3.38 3.139 4.75 2.349 2.71 5.057 4.786 8.1 6.133 1.524.666 3.14 1.136 4.852 1.33 1.71.194 3.529.1 5.4-.383a15.076 15.076 0 0 0 1.761-.57l.176-.069.088-.035.123-.052.303-.132.15-.064.194-.09c.16-.075.317-.151.47-.23.258.667.487 1.353.684 2.061.538 1.951.818 4.07.723 6.277a19.372 19.372 0 0 1-1.49 6.666c-.912 2.173-2.248 4.218-3.864 5.998a25.15 25.15 0 0 1-2.603 2.471l-.695.555-.139.104a32.64 32.64 0 0 0-2.475-6.716c-.688-1.339-1.454-2.663-2.375-3.859-.92-1.2-2.03-2.208-3.163-3.22-4.536-4.063-10.482-6.792-17.218-8.333a73.133 73.133 0 0 0-2.565-.528l-1.31-.223-.669-.11-.655-.093c-1.843-.238-3.715-.38-5.833-.18-1.065.117-2.179.299-3.479.823a8.663 8.663 0 0 0-2.13 1.23 8.317 8.317 0 0 0-2.22 2.658 8.41 8.41 0 0 0-.67 1.665zm32.87-16.386c-1.04-1.57-1.949-3.38-2.528-5.442-.271-.973-.46-2.043-.474-3.025.337-.06.706-.083 1.075-.076l.338.018.342.031.193.024.167.027.371.058c.498.073.992.155 1.475.259 1.951.39 3.843.938 5.633 1.706 3.582 1.521 6.81 3.827 9.367 7.125a23.406 23.406 0 0 1 2.91 4.948c-.327.175-.654.34-.98.485-3.588 1.622-7.066 1.602-10.092.428-3.034-1.178-5.7-3.435-7.798-6.566zm-28.829 16.125c.04-.049.1-.12.208-.21.199-.182.534-.407.91-.595.762-.39 1.67-.65 2.564-.82 1.796-.329 3.623-.337 5.337-.226l.674.053.641.065 1.296.142c.853.11 1.696.235 2.523.376 6.606 1.153 12.217 3.64 16.245 7.555 1.005.982 1.862 2.11 2.685 3.22.831 1.099 1.636 2.186 2.316 3.378 1.032 1.807 1.83 3.772 2.425 5.818a22.796 22.796 0 0 1-5.08 2.405 21.728 21.728 0 0 1-6.168 1.045c-3.986.085-7.66-.85-11-2.34-3.338-1.5-6.36-3.573-8.999-6.095a29.299 29.299 0 0 1-3.608-4.161c-1.07-1.513-2.014-3.165-2.642-4.975-.312-.898-.54-1.854-.598-2.762a5.527 5.527 0 0 1 .043-1.214c.056-.337.13-.512.16-.56a.414.414 0 0 1 .068-.1zM11.39 350.549a8.62 8.62 0 0 0-.282 1.49 9.554 9.554 0 0 0 .065 2.362c.207 1.367.602 2.458 1.046 3.475.902 2.014 2.043 3.683 3.284 5.23a35.828 35.828 0 0 0 4.045 4.222 40.436 40.436 0 0 0 9.65 6.377 34.499 34.499 0 0 0 5.572 2.058 28.88 28.88 0 0 0 6.13.998c2.146.106 4.402-.04 6.759-.582a23.938 23.938 0 0 0 6.595-2.628 38 38 0 0 1 .836 5.163c.226 2.461.23 4.842.097 7.044a61.784 61.784 0 0 1-1.563 10.53c-.593 2.484-1.055 3.818-1.055 3.818s.147-.325.403-.964a52.41 52.41 0 0 0 1.045-2.847c.42-1.254.9-2.807 1.373-4.64a60.51 60.51 0 0 0 1.285-6.29c.355-2.345.6-4.928.628-7.667a42.502 42.502 0 0 0-.343-5.938l.58-.432.861-.687a32.315 32.315 0 0 0 3.332-3.169c2.13-2.338 4.028-5.21 5.303-8.264 1.277-3.05 1.93-6.185 2.04-9.017a25.075 25.075 0 0 0-.874-7.744 25.885 25.885 0 0 0-.674-2.077c.405-.427.793-.888 1.151-1.378a15.235 15.235 0 0 0 1.872-3.488 16.09 16.09 0 0 0 .878-3.378c.154-1.059.193-2.04.166-2.954a19.453 19.453 0 0 0-.767-4.802 23.578 23.578 0 0 0-1.454-3.773 25.205 25.205 0 0 0-1.745-3.057 33.802 33.802 0 0 0-3.674-4.603 36.663 36.663 0 0 0-3.352-3.14 47.387 47.387 0 0 0-2.65-2.045c-.736-.528-1.315-.904-1.706-1.159l-.595-.38.514.5c.34.328.834.83 1.47 1.491a49.441 49.441 0 0 1 5.062 6.24 36.474 36.474 0 0 1 2.918 5.114c.908 1.98 1.768 4.24 2.22 6.86.224 1.306.337 2.705.249 4.137a13.309 13.309 0 0 1-.303 2.137 9.92 9.92 0 0 1-.683 1.986 8.09 8.09 0 0 1-.482.876 10.07 10.07 0 0 1-.568.785 8.843 8.843 0 0 1-.262.305c-.075-.131-.148-.265-.226-.393a26.976 26.976 0 0 0-3.718-4.883c-2.75-2.857-5.937-4.99-9.317-6.568a36.683 36.683 0 0 0-5.21-1.962 30.756 30.756 0 0 0-1.337-.372l-.335-.088-.349-.084-.373-.08-.385-.069a7.89 7.89 0 0 0-1.709-.091 5.58 5.58 0 0 0-1.065.172c-.4.111-.849.265-1.4.614-.27.168-.572.404-.866.687-.298.288-.59.646-.837 1.026a6.466 6.466 0 0 0-.894 2.165 6.99 6.99 0 0 0-.15 1.54c.007.43.046.805.099 1.149.223 1.36.628 2.36 1.064 3.308.888 1.863 1.972 3.38 3.139 4.75 2.349 2.71 5.057 4.786 8.1 6.133 1.524.666 3.14 1.136 4.852 1.33 1.71.194 3.529.1 5.4-.383a15.076 15.076 0 0 0 1.761-.57l.176-.069.088-.035.123-.052.303-.132.15-.064.194-.09c.16-.075.317-.151.47-.23.258.667.487 1.353.684 2.061.538 1.951.818 4.07.723 6.277a19.372 19.372 0 0 1-1.49 6.666c-.912 2.173-2.248 4.218-3.864 5.998a25.15 25.15 0 0 1-2.603 2.471l-.695.555-.139.104a32.64 32.64 0 0 0-2.475-6.716c-.688-1.339-1.454-2.663-2.375-3.859-.92-1.2-2.03-2.208-3.163-3.22-4.536-4.063-10.482-6.792-17.218-8.333a73.133 73.133 0 0 0-2.565-.528l-1.31-.223-.669-.11-.655-.093c-1.843-.238-3.715-.38-5.833-.18-1.065.117-2.179.299-3.479.823a8.664 8.664 0 0 0-2.13 1.23 8.317 8.317 0 0 0-2.22 2.658 8.41 8.41 0 0 0-.67 1.665zm32.87-16.386c-1.04-1.57-1.949-3.38-2.528-5.442-.271-.973-.46-2.043-.474-3.025.337-.06.706-.083 1.075-.076l.338.018.342.031.193.024.167.027.371.058c.498.073.992.155 1.475.259 1.951.39 3.843.938 5.633 1.706 3.582 1.521 6.81 3.827 9.367 7.125a23.406 23.406 0 0 1 2.91 4.948c-.327.175-.654.34-.98.485-3.588 1.622-7.066 1.602-10.092.428-3.034-1.178-5.7-3.435-7.798-6.566zm-28.83 16.125c.04-.049.1-.12.208-.21.199-.182.534-.407.91-.595.762-.39 1.67-.65 2.564-.82 1.796-.329 3.623-.337 5.337-.226l.674.053.641.065 1.296.142c.853.11 1.696.235 2.523.376 6.606 1.153 12.217 3.64 16.245 7.555 1.005.982 1.862 2.11 2.685 3.22.831 1.099 1.636 2.186 2.316 3.378 1.032 1.807 1.83 3.772 2.425 5.818a22.796 22.796 0 0 1-5.08 2.405 21.728 21.728 0 0 1-6.168 1.045c-3.986.085-7.66-.85-11-2.34-3.338-1.5-6.36-3.573-8.999-6.095a29.299 29.299 0 0 1-3.608-4.161c-1.07-1.513-2.014-3.165-2.642-4.975-.312-.898-.54-1.854-.598-2.762a5.527 5.527 0 0 1 .043-1.214c.056-.337.13-.512.16-.56a.414.414 0 0 1 .068-.1zM331.742 48.924a8.678 8.678 0 0 0-.282 1.49 9.554 9.554 0 0 0 .065 2.362c.208 1.367.603 2.458 1.046 3.475.902 2.014 2.043 3.683 3.284 5.23a35.828 35.828 0 0 0 4.046 4.222 40.436 40.436 0 0 0 9.65 6.377 34.499 34.499 0 0 0 5.57 2.058 28.88 28.88 0 0 0 6.132.999c2.145.105 4.401-.04 6.758-.583a23.938 23.938 0 0 0 6.595-2.628 38 38 0 0 1 .836 5.163c.226 2.461.23 4.842.097 7.044a61.784 61.784 0 0 1-1.563 10.53c-.593 2.484-1.055 3.818-1.055 3.818s.147-.325.403-.964a52.41 52.41 0 0 0 1.045-2.847c.42-1.254.9-2.807 1.373-4.64a60.51 60.51 0 0 0 1.285-6.29c.355-2.345.6-4.928.628-7.667a42.502 42.502 0 0 0-.343-5.938l.58-.431.861-.688a32.315 32.315 0 0 0 3.332-3.169c2.13-2.338 4.028-5.21 5.303-8.264 1.277-3.05 1.93-6.185 2.04-9.016a25.075 25.075 0 0 0-.873-7.745c-.2-.718-.427-1.407-.675-2.077.405-.427.793-.888 1.151-1.378a15.235 15.235 0 0 0 1.872-3.487 16.09 16.09 0 0 0 .878-3.379c.154-1.059.193-2.04.166-2.954a19.453 19.453 0 0 0-.767-4.802 23.578 23.578 0 0 0-1.454-3.773 25.205 25.205 0 0 0-1.745-3.057 33.802 33.802 0 0 0-3.674-4.602 36.663 36.663 0 0 0-3.352-3.14 47.387 47.387 0 0 0-2.65-2.046c-.736-.528-1.315-.904-1.706-1.159l-.595-.38.514.5c.34.329.834.83 1.47 1.492a49.441 49.441 0 0 1 5.062 6.239 36.474 36.474 0 0 1 2.918 5.114c.908 1.98 1.768 4.24 2.221 6.86.223 1.306.336 2.705.248 4.138a13.309 13.309 0 0 1-.303 2.136 9.92 9.92 0 0 1-.683 1.986 8.26 8.26 0 0 1-.481.876 10.07 10.07 0 0 1-.568.785 8.841 8.841 0 0 1-.262.305c-.076-.131-.149-.265-.227-.393a26.976 26.976 0 0 0-3.717-4.883c-2.75-2.857-5.937-4.99-9.318-6.568a36.683 36.683 0 0 0-5.21-1.962 32.243 32.243 0 0 0-1.337-.372l-.335-.088-.348-.084-.373-.08-.386-.069a7.89 7.89 0 0 0-1.708-.09 5.58 5.58 0 0 0-1.066.171c-.4.112-.849.265-1.4.614-.27.168-.572.404-.866.687-.298.288-.59.646-.837 1.026a6.466 6.466 0 0 0-.894 2.165 6.99 6.99 0 0 0-.15 1.54c.007.43.046.805.1 1.149.223 1.36.628 2.36 1.063 3.308.888 1.864 1.972 3.38 3.139 4.75 2.349 2.71 5.057 4.786 8.1 6.133 1.525.666 3.14 1.136 4.852 1.33 1.71.194 3.529.1 5.401-.383a15.076 15.076 0 0 0 1.76-.57l.176-.069.088-.035.123-.052.303-.132.15-.064.194-.09c.16-.074.317-.151.47-.229.258.666.488 1.352.684 2.06.538 1.951.818 4.07.723 6.277a19.372 19.372 0 0 1-1.49 6.666c-.912 2.173-2.248 4.218-3.864 5.998a25.15 25.15 0 0 1-2.603 2.471l-.695.555-.139.104a32.64 32.64 0 0 0-2.475-6.716c-.688-1.339-1.454-2.663-2.375-3.859-.92-1.2-2.03-2.208-3.163-3.22-4.536-4.063-10.482-6.792-17.218-8.333a73.133 73.133 0 0 0-2.565-.528l-1.31-.223-.669-.11-.655-.093c-1.843-.238-3.715-.38-5.833-.18-1.065.118-2.179.299-3.479.823a8.664 8.664 0 0 0-2.13 1.23 8.317 8.317 0 0 0-2.22 2.659 8.41 8.41 0 0 0-.67 1.664zm32.87-16.386c-1.04-1.57-1.949-3.38-2.528-5.442-.271-.973-.46-2.043-.474-3.025.337-.06.706-.083 1.075-.075l.338.017.342.031.193.024.167.027.371.058c.498.073.992.155 1.476.259 1.95.39 3.843.938 5.632 1.706 3.582 1.521 6.81 3.827 9.368 7.125a23.406 23.406 0 0 1 2.909 4.948c-.327.175-.654.34-.98.485-3.588 1.622-7.066 1.602-10.092.428-3.034-1.178-5.7-3.435-7.798-6.566zm-28.829 16.125c.04-.049.101-.12.208-.21.199-.182.534-.407.91-.595.762-.39 1.67-.65 2.564-.82 1.797-.329 3.623-.337 5.337-.226l.674.053.641.065 1.296.142c.853.11 1.696.235 2.523.376 6.606 1.153 12.217 3.64 16.246 7.555 1.004.982 1.861 2.11 2.684 3.22.832 1.099 1.636 2.187 2.316 3.378 1.032 1.807 1.83 3.772 2.426 5.818a22.796 22.796 0 0 1-5.08 2.405 21.728 21.728 0 0 1-6.169 1.046c-3.985.084-7.66-.851-11-2.34-3.338-1.501-6.36-3.574-8.999-6.096a29.299 29.299 0 0 1-3.608-4.161c-1.07-1.513-2.014-3.165-2.642-4.974-.312-.899-.54-1.855-.598-2.763a5.527 5.527 0 0 1 .044-1.214c.055-.337.13-.512.159-.56a.414.414 0 0 1 .068-.1z" fill="#FF0" fill-rule="evenodd" fill-opacity=".25"/></svg>