<svg width="80" height="39" viewBox="0 0 80 39" xmlns="http://www.w3.org/2000/svg"><title>Shape</title><path d="M79.916 8.406c-.325-1.883-1.643-4.2-6.074-4.545-.968-.075-3.959-.088-8.098-.106-8.171-.035-20.482-.088-26.09-.698-3.743-1.451-7.85-2.785-12.91-3.042C21.639-.246 15.299 2.88 11.23 6.203c-1.16.26-5.576 1.182-8.76.973a1.365 1.365 0 0 0-1.443 1.268 1.358 1.358 0 0 0 1.268 1.443c.373.024.757.035 1.15.035 1.512 0 3.122-.163 4.545-.367-.182.268-.34.53-.467.782a1.358 1.358 0 1 0 2.427 1.22c1.523-3.025 10.38-9.143 16.657-8.828 5.207.263 9.25 1.728 13.272 3.334 2.09.835 3.165 2.724 4.654 5.337l.256.45c.24.419.615.958 1.089 1.639 2.233 3.204 3.23 5.137 2.968 5.737-.16.246-.783 1.067-2.102 1.324-1.671.326-3.837-.39-6.248-2.076-3.08-2.151-3.116-4.77-3.117-4.864a1.357 1.357 0 0 0-1.326-1.39 1.321 1.321 0 0 0-1.262.776c-1.875-.416-3.453-.328-4.697.284a4.327 4.327 0 0 0-2.384 3.184c-.85.664-3.298 2.154-6.834.799a1.36 1.36 0 0 0-.973 2.538c1.392.532 2.666.74 3.808.74.596 0 1.142-.07 1.661-.165-.061.14-.129.28-.175.425-.181.563-.39 1.66.092 2.916a4.238 4.238 0 0 0-1.779 1.814c-.963 1.893-.396 4.203 1.518 6.178a36.406 36.406 0 0 0 3.7 3.333c-4.17-.432-9.798-1.288-13.069-2.92-4.185-2.086-6.284-4.923-6.24-8.43a1.36 1.36 0 0 0-1.342-1.375c-.745-.027-1.366.59-1.376 1.34a10.43 10.43 0 0 0 .783 4.123c-1.678-.14-4.118-.243-6.317.07a1.359 1.359 0 0 0 .384 2.69c3.327-.475 7.527.148 7.568.155.062.009.124.013.184.013 1.17 1.364 2.82 2.686 5.144 3.845C20.2 37.42 31.76 38.063 33.69 38.15c.363.163.707.304 1.014.408a6.461 6.461 0 0 0 2.073.332c2.372 0 5.094-1.219 7.09-4.241.468.075.927.12 1.371.12 2.274 0 4.194-.98 5.41-2.849a6.393 6.393 0 0 0 1.035-4.021c.897-.177 1.68-.537 2.32-1.103 1.516-1.34 1.836-3.356 1.839-4.812.003-2.159-.993-4.54-1.819-6.142a3538.69 3538.69 0 0 1 18.95-.818c3.354-.13 5.056-1.39 5.893-2.423.943-1.165 1.317-2.657 1.05-4.195zM35.575 35.99c-1.802-.613-5.135-2.595-8.598-6.169-1.085-1.12-1.467-2.233-1.048-3.054a1.521 1.521 0 0 1 1.02-.793c.132.114.268.228.418.341 3.804 2.878 9.814 5.997 13.73 7.524-1.987 2.47-4.357 2.544-5.522 2.151zm12.792-5.547c-1.487 2.282-4.317 1.58-5.464 1.171-3.662-1.299-10.12-4.609-13.896-7.465-1.085-.82-1.497-1.666-1.225-2.512.202-.625.718-1.106 1.183-1.35.718.789 1.79 1.588 3.361 2.338 4.338 2.07 11.938 4.643 16.63 5.298a3.7 3.7 0 0 1-.589 2.52zm4.753-8.459c0 .736-.123 2.074-.923 2.78-.542.48-1.399.655-2.549.511-4.325-.528-11.984-3.113-16.15-5.104-1.65-.788-3.52-2.032-3.052-3.485a1.6 1.6 0 0 1 .845-.965c.827-.406 2.173-.34 3.83.17.505 1.416 1.568 3.24 3.818 4.812 2.517 1.758 4.851 2.643 6.962 2.643a7.05 7.05 0 0 0 1.361-.13c2.303-.447 3.466-1.902 3.86-2.507.822-1.262.47-2.87-.465-4.71l.337-.016c.798 1.343 2.13 4.002 2.126 6.001zm23.63-11.087c-.694.856-2.037 1.346-3.886 1.417-7.614.296-22.189.964-23.791 1.037a85.284 85.284 0 0 0-.966-1.415c-.419-.6-.78-1.119-.96-1.434l-.254-.446c-.83-1.458-1.605-2.81-2.557-3.947 6.336.298 15.089.337 21.397.363 3.928.017 7.03.03 7.899.098 3.254.253 3.502 1.687 3.607 2.3.076.438.113 1.283-.49 2.027z" fill="#0F88FF" fill-rule="evenodd"/></svg>