<?xml version="1.0" encoding="UTF-8" standalone="no"?>
<svg width="400px" height="400px" viewBox="0 0 400 400" version="1.1" xmlns="http://www.w3.org/2000/svg" xmlns:xlink="http://www.w3.org/1999/xlink">
    <!-- Generator: Sketch 39.1 (31720) - http://www.bohemiancoding.com/sketch -->
    <title>bg-curl</title>
    <desc>Created with Sketch.</desc>
    <defs></defs>
    <g id="Page-1" stroke="none" stroke-width="1" fill="none" fill-rule="evenodd" fill-opacity="0.25">
        <g id="bg-curl" fill="#FFFF00">
            <path d="M183.088477,85.9532949 C182.949622,85.4204949 182.777056,84.9320949 182.586833,84.5216949 C182.207188,83.6816949 181.779385,83.0588949 181.349977,82.5092949 C180.487149,81.4292949 179.599438,80.6816949 178.706912,80.0228949 C176.918649,78.7292949 175.095872,77.8544949 173.247412,77.1344949 C171.398951,76.4216949 169.524806,75.8948949 167.633004,75.5012949 C163.846991,74.7272949 159.983122,74.4740949 156.087149,74.8040949 C154.139162,74.9744949 152.183951,75.2900949 150.233556,75.8072949 C148.283162,76.3196949 146.337583,77.0324949 144.424912,78.0080949 C142.514649,78.9896949 140.63328,80.2436949 138.863477,81.8912949 C137.256609,83.3948949 135.742043,85.2428949 134.465859,87.4652949 C133.250675,86.1716949 132.147056,84.8048949 131.160622,83.4116949 C129.734346,81.3932949 128.540833,79.3328949 127.554399,77.3600949 C125.583938,73.4036949 124.367149,69.9008949 123.642372,67.4588949 C122.914385,65.0120949 122.647912,63.6248949 122.647912,63.6248949 C122.647912,63.6248949 122.682425,63.9800949 122.780346,64.6616949 C122.87907,65.3432949 123.035583,66.3536949 123.298846,67.6496949 C123.562109,68.9456949 123.923293,70.5308949 124.430556,72.3548949 C124.93782,74.1764949 125.588754,76.2404949 126.462017,78.4436949 C127.327254,80.6528949 128.405991,83.0120949 129.752004,85.3976949 C130.693491,87.0776949 131.784267,88.7504949 133.017912,90.3692949 L132.731372,91.0328949 L132.329254,92.0588949 C131.810754,93.4460949 131.366899,94.9196949 131.028188,96.4688949 C130.352372,99.5588949 130.145293,102.995695 130.56828,106.277695 C130.986451,109.557295 131.988938,112.599295 133.309267,115.106095 C134.628793,117.632095 136.231649,119.691295 137.938043,121.376095 C138.469385,121.898095 139.011162,122.381695 139.560964,122.837695 C139.423714,123.410095 139.317767,124.002895 139.252754,124.606495 C139.113899,125.952895 139.173293,127.319695 139.375556,128.562895 C139.573806,129.812095 139.91332,130.930495 140.304201,131.927695 C140.700701,132.921295 141.157399,133.791295 141.637372,134.568895 C142.601333,136.122895 143.65278,137.327695 144.702622,138.344095 C145.755675,139.356895 146.811938,140.182495 147.848135,140.884495 C148.882727,141.594895 149.902872,142.167295 150.888504,142.659295 C152.862175,143.640895 154.701806,144.312895 156.37128,144.808495 C158.039149,145.313695 159.539267,145.626895 160.844346,145.851295 C162.149425,146.075695 163.26107,146.206495 164.162425,146.297695 C165.062977,146.387695 165.753241,146.423695 166.218767,146.448895 C166.684293,146.470495 166.92428,146.481295 166.92428,146.481295 C166.92428,146.481295 166.687504,146.421295 166.229201,146.304895 C165.770899,146.189695 165.091872,146.002495 164.20978,145.748095 C162.448806,145.230895 159.869951,144.384895 156.70678,142.875295 C155.128004,142.113295 153.40957,141.155695 151.622109,139.905295 C149.845885,138.644095 147.971741,137.117695 146.269359,135.075295 C145.423385,134.055295 144.62557,132.900895 143.985872,131.615695 C143.66803,130.973695 143.39032,130.301695 143.18003,129.614095 C142.976162,128.927695 142.828477,128.229295 142.777912,127.552495 C142.745806,127.212895 142.749017,126.880495 142.757043,126.552895 C142.774701,126.227695 142.808412,125.907295 142.85657,125.589295 C142.877438,125.458495 142.903925,125.326495 142.931214,125.194495 C143.062043,125.270095 143.19207,125.349295 143.323701,125.421295 C145.181793,126.468895 147.081622,127.230895 148.984662,127.791295 C152.794754,128.890495 156.620899,129.143695 160.337885,128.820895 C162.19678,128.666095 164.030793,128.345695 165.830293,127.914895 C166.281372,127.811695 166.728438,127.691695 167.174701,127.568095 L167.508596,127.476895 L167.852925,127.376095 L168.215714,127.258495 L168.584122,127.125295 C169.075333,126.932095 169.57457,126.704095 170.109122,126.350095 C170.376399,126.170095 170.654109,125.957695 170.945464,125.668495 C171.236017,125.372095 171.548241,125.014495 171.851635,124.436095 C172.000925,124.156495 172.144596,123.801295 172.257767,123.408895 C172.371741,123.010495 172.445583,122.554495 172.469662,122.102095 C172.519425,121.180495 172.352477,120.368095 172.161451,119.780095 C171.965609,119.186095 171.74007,118.742095 171.520951,118.371295 C171.300227,118.001695 171.079504,117.696895 170.861188,117.425695 C169.987925,116.360095 169.137135,115.696495 168.285543,115.092895 C166.584767,113.922895 164.888004,113.151295 163.192043,112.547695 C159.80253,111.375295 156.419438,110.932495 153.110188,111.287695 C151.45757,111.472495 149.824214,111.873295 148.243833,112.562095 C146.665859,113.248495 145.137649,114.238495 143.757925,115.593295 C143.412793,115.929295 143.079701,116.294095 142.757846,116.675695 C142.67678,116.771695 142.59732,116.866495 142.518662,116.967295 L142.400675,117.114895 L142.342083,117.189295 L142.26182,117.296095 L142.065175,117.561295 L141.966451,117.692095 L141.844451,117.867295 C141.74332,118.011295 141.645399,118.156495 141.551491,118.300495 C140.995267,117.852895 140.453491,117.372895 139.929372,116.858095 C138.487846,115.437295 137.185977,113.741695 136.16503,111.783295 C135.136859,109.830895 134.42332,107.602495 134.122333,105.266095 C133.825359,102.928495 133.960201,100.488895 134.469872,98.1392949 C134.725912,96.9644949 135.071846,95.8124949 135.488412,94.6976949 L135.812675,93.8696949 L135.880899,93.7100949 C137.527899,95.4104949 139.36753,96.9656949 141.382135,98.2892949 C142.647885,99.1040949 143.97303,99.8684949 145.368806,100.443295 C146.765385,101.022895 148.230991,101.340895 149.717464,101.650495 C155.677806,102.900895 162.191964,102.291295 168.796017,100.258495 C169.621122,100.000495 170.450241,99.7256949 171.280964,99.4328949 C171.695122,99.2792949 172.110083,99.1256949 172.526649,98.9708949 L173.16153,98.7320949 L173.775543,98.4848949 C175.489964,97.7696949 177.182714,96.9572949 178.917201,95.7248949 C179.78003,95.0900949 180.654096,94.3760949 181.517727,93.2720949 C181.946333,92.7164949 182.381359,92.0564949 182.748964,91.1420949 C183.114964,90.2552949 183.399096,89.0048949 183.341306,87.7292949 C183.317227,87.1028949 183.228135,86.4848949 183.088477,85.9532949 L183.088477,85.9532949 Z M162.815716,116.579045 C164.50135,117.418938 166.192363,118.531843 167.725572,120.027724 C168.44645,120.734902 169.145808,121.567211 169.647912,122.410896 C169.386101,122.630822 169.078562,122.835582 168.754885,123.013798 L168.453622,123.167368 L168.141601,123.311458 L167.962278,123.387294 L167.804474,123.447964 L167.453898,123.582574 C166.986763,123.768374 166.517834,123.944695 166.047112,124.096369 C164.16243,124.733398 162.249953,125.205482 160.315958,125.434888 C156.453347,125.908868 152.505557,125.525892 148.641153,123.948487 C146.948346,123.2451 145.272575,122.323683 143.647912,121.117878 C143.843373,120.803155 144.043318,120.496016 144.253126,120.207836 C146.55025,117.009419 149.571837,115.287924 152.779921,114.791193 C155.996074,114.294461 159.432793,114.916323 162.815716,116.579045 Z M179.71903,88.2003814 C179.709399,88.2617442 179.691741,88.3545019 179.644385,88.4857896 C179.562517,88.742657 179.385135,89.1051253 179.153175,89.4561774 C178.688451,90.1739789 178.031899,90.8532504 177.343241,91.4483264 C175.951477,92.6313432 174.374306,93.5517846 172.834056,94.3123973 L172.224056,94.6035137 L171.635727,94.8675162 C171.23682,95.0430422 170.838714,95.2185683 170.442214,95.3926672 C169.648412,95.7237407 168.856214,96.0376897 168.069635,96.328806 C161.772188,98.633477 155.66978,99.2856346 150.223122,97.9085402 C148.862662,97.5603423 147.555977,97.0123586 146.288622,96.4629479 C145.018859,95.9263805 143.777991,95.3869591 142.594109,94.6948443 C140.796214,93.6459693 139.12353,92.343081 137.584083,90.8689478 C138.51032,89.1094065 139.595477,87.5667753 140.780964,86.2467625 C142.265833,84.6028115 143.899991,83.2956421 145.599964,82.2567564 C149.009543,80.1904012 152.659912,79.1629318 156.295833,78.783339 C159.938175,78.4137354 163.591754,78.6977165 167.13778,79.5625033 C168.909188,80.0006048 170.655714,80.5871186 172.342846,81.3620018 C174.025964,82.1368849 175.669754,83.0958564 177.118504,84.3487982 C177.837662,84.970988 178.513477,85.6845085 179.016727,86.4422671 C179.263938,86.8161518 179.47182,87.2014529 179.586596,87.5154018 C179.706991,87.835059 179.730267,88.0234284 179.728662,88.08051 C179.730267,88.114759 179.73107,88.1375916 179.71903,88.2003814 L179.71903,88.2003814 Z" id="Shape" transform="translate(152.998354, 105.053095) rotate(210.000000) translate(-152.998354, -105.053095) "></path>
            <path d="M307.088477,255.953295 C306.949622,255.420495 306.777056,254.932095 306.586833,254.521695 C306.207188,253.681695 305.779385,253.058895 305.349977,252.509295 C304.487149,251.429295 303.599438,250.681695 302.706912,250.022895 C300.918649,248.729295 299.095872,247.854495 297.247412,247.134495 C295.398951,246.421695 293.524806,245.894895 291.633004,245.501295 C287.846991,244.727295 283.983122,244.474095 280.087149,244.804095 C278.139162,244.974495 276.183951,245.290095 274.233556,245.807295 C272.283162,246.319695 270.337583,247.032495 268.424912,248.008095 C266.514649,248.989695 264.63328,250.243695 262.863477,251.891295 C261.256609,253.394895 259.742043,255.242895 258.465859,257.465295 C257.250675,256.171695 256.147056,254.804895 255.160622,253.411695 C253.734346,251.393295 252.540833,249.332895 251.554399,247.360095 C249.583938,243.403695 248.367149,239.900895 247.642372,237.458895 C246.914385,235.012095 246.647912,233.624895 246.647912,233.624895 C246.647912,233.624895 246.682425,233.980095 246.780346,234.661695 C246.87907,235.343295 247.035583,236.353695 247.298846,237.649695 C247.562109,238.945695 247.923293,240.530895 248.430556,242.354895 C248.93782,244.176495 249.588754,246.240495 250.462017,248.443695 C251.327254,250.652895 252.405991,253.012095 253.752004,255.397695 C254.693491,257.077695 255.784267,258.750495 257.017912,260.369295 L256.731372,261.032895 L256.329254,262.058895 C255.810754,263.446095 255.366899,264.919695 255.028188,266.468895 C254.352372,269.558895 254.145293,272.995695 254.56828,276.277695 C254.986451,279.557295 255.988938,282.599295 257.309267,285.106095 C258.628793,287.632095 260.231649,289.691295 261.938043,291.376095 C262.469385,291.898095 263.011162,292.381695 263.560964,292.837695 C263.423714,293.410095 263.317767,294.002895 263.252754,294.606495 C263.113899,295.952895 263.173293,297.319695 263.375556,298.562895 C263.573806,299.812095 263.91332,300.930495 264.304201,301.927695 C264.700701,302.921295 265.157399,303.791295 265.637372,304.568895 C266.601333,306.122895 267.65278,307.327695 268.702622,308.344095 C269.755675,309.356895 270.811938,310.182495 271.848135,310.884495 C272.882727,311.594895 273.902872,312.167295 274.888504,312.659295 C276.862175,313.640895 278.701806,314.312895 280.37128,314.808495 C282.039149,315.313695 283.539267,315.626895 284.844346,315.851295 C286.149425,316.075695 287.26107,316.206495 288.162425,316.297695 C289.062977,316.387695 289.753241,316.423695 290.218767,316.448895 C290.684293,316.470495 290.92428,316.481295 290.92428,316.481295 C290.92428,316.481295 290.687504,316.421295 290.229201,316.304895 C289.770899,316.189695 289.091872,316.002495 288.20978,315.748095 C286.448806,315.230895 283.869951,314.384895 280.70678,312.875295 C279.128004,312.113295 277.40957,311.155695 275.622109,309.905295 C273.845885,308.644095 271.971741,307.117695 270.269359,305.075295 C269.423385,304.055295 268.62557,302.900895 267.985872,301.615695 C267.66803,300.973695 267.39032,300.301695 267.18003,299.614095 C266.976162,298.927695 266.828477,298.229295 266.777912,297.552495 C266.745806,297.212895 266.749017,296.880495 266.757043,296.552895 C266.774701,296.227695 266.808412,295.907295 266.85657,295.589295 C266.877438,295.458495 266.903925,295.326495 266.931214,295.194495 C267.062043,295.270095 267.19207,295.349295 267.323701,295.421295 C269.181793,296.468895 271.081622,297.230895 272.984662,297.791295 C276.794754,298.890495 280.620899,299.143695 284.337885,298.820895 C286.19678,298.666095 288.030793,298.345695 289.830293,297.914895 C290.281372,297.811695 290.728438,297.691695 291.174701,297.568095 L291.508596,297.476895 L291.852925,297.376095 L292.215714,297.258495 L292.584122,297.125295 C293.075333,296.932095 293.57457,296.704095 294.109122,296.350095 C294.376399,296.170095 294.654109,295.957695 294.945464,295.668495 C295.236017,295.372095 295.548241,295.014495 295.851635,294.436095 C296.000925,294.156495 296.144596,293.801295 296.257767,293.408895 C296.371741,293.010495 296.445583,292.554495 296.469662,292.102095 C296.519425,291.180495 296.352477,290.368095 296.161451,289.780095 C295.965609,289.186095 295.74007,288.742095 295.520951,288.371295 C295.300227,288.001695 295.079504,287.696895 294.861188,287.425695 C293.987925,286.360095 293.137135,285.696495 292.285543,285.092895 C290.584767,283.922895 288.888004,283.151295 287.192043,282.547695 C283.80253,281.375295 280.419438,280.932495 277.110188,281.287695 C275.45757,281.472495 273.824214,281.873295 272.243833,282.562095 C270.665859,283.248495 269.137649,284.238495 267.757925,285.593295 C267.412793,285.929295 267.079701,286.294095 266.757846,286.675695 C266.67678,286.771695 266.59732,286.866495 266.518662,286.967295 L266.400675,287.114895 L266.342083,287.189295 L266.26182,287.296095 L266.065175,287.561295 L265.966451,287.692095 L265.844451,287.867295 C265.74332,288.011295 265.645399,288.156495 265.551491,288.300495 C264.995267,287.852895 264.453491,287.372895 263.929372,286.858095 C262.487846,285.437295 261.185977,283.741695 260.16503,281.783295 C259.136859,279.830895 258.42332,277.602495 258.122333,275.266095 C257.825359,272.928495 257.960201,270.488895 258.469872,268.139295 C258.725912,266.964495 259.071846,265.812495 259.488412,264.697695 L259.812675,263.869695 L259.880899,263.710095 C261.527899,265.410495 263.36753,266.965695 265.382135,268.289295 C266.647885,269.104095 267.97303,269.868495 269.368806,270.443295 C270.765385,271.022895 272.230991,271.340895 273.717464,271.650495 C279.677806,272.900895 286.191964,272.291295 292.796017,270.258495 C293.621122,270.000495 294.450241,269.725695 295.280964,269.432895 C295.695122,269.279295 296.110083,269.125695 296.526649,268.970895 L297.16153,268.732095 L297.775543,268.484895 C299.489964,267.769695 301.182714,266.957295 302.917201,265.724895 C303.78003,265.090095 304.654096,264.376095 305.517727,263.272095 C305.946333,262.716495 306.381359,262.056495 306.748964,261.142095 C307.114964,260.255295 307.399096,259.004895 307.341306,257.729295 C307.317227,257.102895 307.228135,256.484895 307.088477,255.953295 L307.088477,255.953295 Z M286.815716,286.579045 C288.50135,287.418938 290.192363,288.531843 291.725572,290.027724 C292.44645,290.734902 293.145808,291.567211 293.647912,292.410896 C293.386101,292.630822 293.078562,292.835582 292.754885,293.013798 L292.453622,293.167368 L292.141601,293.311458 L291.962278,293.387294 L291.804474,293.447964 L291.453898,293.582574 C290.986763,293.768374 290.517834,293.944695 290.047112,294.096369 C288.16243,294.733398 286.249953,295.205482 284.315958,295.434888 C280.453347,295.908868 276.505557,295.525892 272.641153,293.948487 C270.948346,293.2451 269.272575,292.323683 267.647912,291.117878 C267.843373,290.803155 268.043318,290.496016 268.253126,290.207836 C270.55025,287.009419 273.571837,285.287924 276.779921,284.791193 C279.996074,284.294461 283.432793,284.916323 286.815716,286.579045 Z M303.71903,258.200381 C303.709399,258.261744 303.691741,258.354502 303.644385,258.48579 C303.562517,258.742657 303.385135,259.105125 303.153175,259.456177 C302.688451,260.173979 302.031899,260.85325 301.343241,261.448326 C299.951477,262.631343 298.374306,263.551785 296.834056,264.312397 L296.224056,264.603514 L295.635727,264.867516 C295.23682,265.043042 294.838714,265.218568 294.442214,265.392667 C293.648412,265.723741 292.856214,266.03769 292.069635,266.328806 C285.772188,268.633477 279.66978,269.285635 274.223122,267.90854 C272.862662,267.560342 271.555977,267.012359 270.288622,266.462948 C269.018859,265.926381 267.777991,265.386959 266.594109,264.694844 C264.796214,263.645969 263.12353,262.343081 261.584083,260.868948 C262.51032,259.109406 263.595477,257.566775 264.780964,256.246763 C266.265833,254.602811 267.899991,253.295642 269.599964,252.256756 C273.009543,250.190401 276.659912,249.162932 280.295833,248.783339 C283.938175,248.413735 287.591754,248.697717 291.13778,249.562503 C292.909188,250.000605 294.655714,250.587119 296.342846,251.362002 C298.025964,252.136885 299.669754,253.095856 301.118504,254.348798 C301.837662,254.970988 302.513477,255.684508 303.016727,256.442267 C303.263938,256.816152 303.47182,257.201453 303.586596,257.515402 C303.706991,257.835059 303.730267,258.023428 303.728662,258.08051 C303.730267,258.114759 303.73107,258.137592 303.71903,258.200381 L303.71903,258.200381 Z" id="Shape" transform="translate(276.998354, 275.053095) rotate(210.000000) translate(-276.998354, -275.053095) "></path>
            <path d="M77.0884775,329.953295 C76.9496222,329.420495 76.7770564,328.932095 76.5868328,328.521695 C76.207188,327.681695 75.7793854,327.058895 75.3499775,326.509295 C74.4871486,325.429295 73.599438,324.681695 72.7069117,324.022895 C70.9186486,322.729295 69.0958722,321.854495 67.2474117,321.134495 C65.3989512,320.421695 63.5248064,319.894895 61.6330038,319.501295 C57.8469907,318.727295 53.9831222,318.474095 50.0871486,318.804095 C48.1391617,318.974495 46.1839512,319.290095 44.2335564,319.807295 C42.2831617,320.319695 40.3375828,321.032495 38.4249117,322.008095 C36.5146486,322.989695 34.6332801,324.243695 32.8634775,325.891295 C31.2566091,327.394895 29.7420433,329.242895 28.4658591,331.465295 C27.2506749,330.171695 26.1470564,328.804895 25.1606222,327.411695 C23.7343459,325.393295 22.5408328,323.332895 21.5543986,321.360095 C19.583938,317.403695 18.3671486,313.900895 17.6423722,311.458895 C16.9143854,309.012095 16.6479117,307.624895 16.6479117,307.624895 C16.6479117,307.624895 16.6824249,307.980095 16.7803459,308.661695 C16.8790696,309.343295 17.0355828,310.353695 17.2988459,311.649695 C17.5621091,312.945695 17.9232933,314.530895 18.4305564,316.354895 C18.9378196,318.176495 19.5887538,320.240495 20.462017,322.443695 C21.3272538,324.652895 22.4059907,327.012095 23.7520038,329.397695 C24.6934907,331.077695 25.784267,332.750495 27.0179117,334.369295 L26.7313722,335.032895 L26.3292538,336.058895 C25.8107538,337.446095 25.3668986,338.919695 25.028188,340.468895 C24.3523722,343.558895 24.1452933,346.995695 24.5682801,350.277695 C24.9864512,353.557295 25.988938,356.599295 27.309267,359.106095 C28.6287933,361.632095 30.2316486,363.691295 31.9380433,365.376095 C32.4693854,365.898095 33.0111617,366.381695 33.5609643,366.837695 C33.4237143,367.410095 33.317767,368.002895 33.2527538,368.606495 C33.1138986,369.952895 33.1732933,371.319695 33.3755564,372.562895 C33.5738064,373.812095 33.9133196,374.930495 34.3042012,375.927695 C34.7007012,376.921295 35.1573986,377.791295 35.6373722,378.568895 C36.6013328,380.122895 37.6527801,381.327695 38.7026222,382.344095 C39.7556749,383.356895 40.811938,384.182495 41.8481354,384.884495 C42.8827275,385.594895 43.9028722,386.167295 44.8885038,386.659295 C46.8621749,387.640895 48.7018064,388.312895 50.3712801,388.808495 C52.0391486,389.313695 53.539267,389.626895 54.8443459,389.851295 C56.1494249,390.075695 57.2610696,390.206495 58.1624249,390.297695 C59.0629775,390.387695 59.7532407,390.423695 60.218767,390.448895 C60.6842933,390.470495 60.9242801,390.481295 60.9242801,390.481295 C60.9242801,390.481295 60.6875038,390.421295 60.2292012,390.304895 C59.7708986,390.189695 59.0918722,390.002495 58.2097801,389.748095 C56.4488064,389.230895 53.8699512,388.384895 50.7067801,386.875295 C49.1280038,386.113295 47.4095696,385.155695 45.6221091,383.905295 C43.8458854,382.644095 41.9717407,381.117695 40.2693591,379.075295 C39.4233854,378.055295 38.6255696,376.900895 37.9858722,375.615695 C37.6680301,374.973695 37.3903196,374.301695 37.1800301,373.614095 C36.9761617,372.927695 36.8284775,372.229295 36.7779117,371.552495 C36.7458064,371.212895 36.749017,370.880495 36.7570433,370.552895 C36.7747012,370.227695 36.8084117,369.907295 36.8565696,369.589295 C36.877438,369.458495 36.9039249,369.326495 36.9312143,369.194495 C37.0620433,369.270095 37.1920696,369.349295 37.3237012,369.421295 C39.1817933,370.468895 41.0816222,371.230895 42.9846617,371.791295 C46.7947538,372.890495 50.6208986,373.143695 54.3378854,372.820895 C56.1967801,372.666095 58.0307933,372.345695 59.8302933,371.914895 C60.2813722,371.811695 60.728438,371.691695 61.1747012,371.568095 L61.5085959,371.476895 L61.8529249,371.376095 L62.2157143,371.258495 L62.5841222,371.125295 C63.0753328,370.932095 63.5745696,370.704095 64.1091222,370.350095 C64.3763986,370.170095 64.6541091,369.957695 64.9454643,369.668495 C65.236017,369.372095 65.5482407,369.014495 65.8516354,368.436095 C66.0009249,368.156495 66.1445959,367.801295 66.257767,367.408895 C66.3717407,367.010495 66.4455828,366.554495 66.4696617,366.102095 C66.5194249,365.180495 66.3524775,364.368095 66.1614512,363.780095 C65.9656091,363.186095 65.7400696,362.742095 65.5209512,362.371295 C65.3002275,362.001695 65.0795038,361.696895 64.861188,361.425695 C63.9879249,360.360095 63.1371354,359.696495 62.2855433,359.092895 C60.584767,357.922895 58.8880038,357.151295 57.1920433,356.547695 C53.8025301,355.375295 50.419438,354.932495 47.110188,355.287695 C45.4575696,355.472495 43.8242143,355.873295 42.2438328,356.562095 C40.6658591,357.248495 39.1376486,358.238495 37.7579249,359.593295 C37.4127933,359.929295 37.0797012,360.294095 36.7578459,360.675695 C36.6767801,360.771695 36.5973196,360.866495 36.5186617,360.967295 L36.4006749,361.114895 L36.3420828,361.189295 L36.2618196,361.296095 L36.0651749,361.561295 L35.9664512,361.692095 L35.8444512,361.867295 C35.7433196,362.011295 35.6453986,362.156495 35.5514907,362.300495 C34.995267,361.852895 34.4534907,361.372895 33.9293722,360.858095 C32.4878459,359.437295 31.1859775,357.741695 30.1650301,355.783295 C29.1368591,353.830895 28.4233196,351.602495 28.1223328,349.266095 C27.8253591,346.928495 27.9602012,344.488895 28.4698722,342.139295 C28.7259117,340.964495 29.0718459,339.812495 29.4884117,338.697695 L29.8126749,337.869695 L29.8808986,337.710095 C31.5278986,339.410495 33.3675301,340.965695 35.3821354,342.289295 C36.6478854,343.104095 37.9730301,343.868495 39.3688064,344.443295 C40.7653854,345.022895 42.2309907,345.340895 43.7174643,345.650495 C49.6778064,346.900895 56.1919643,346.291295 62.796017,344.258495 C63.6211222,344.000495 64.4502407,343.725695 65.2809643,343.432895 C65.6951222,343.279295 66.1100828,343.125695 66.5266486,342.970895 L67.1615301,342.732095 L67.7755433,342.484895 C69.4899643,341.769695 71.1827143,340.957295 72.9172012,339.724895 C73.7800301,339.090095 74.6540959,338.376095 75.5177275,337.272095 C75.9463328,336.716495 76.3813591,336.056495 76.7489643,335.142095 C77.1149643,334.255295 77.3990959,333.004895 77.3413064,331.729295 C77.3172275,331.102895 77.2281354,330.484895 77.0884775,329.953295 L77.0884775,329.953295 Z M56.8157164,360.579045 C58.5013499,361.418938 60.192363,362.531843 61.7255722,364.027724 C62.4464495,364.734902 63.1458081,365.567211 63.6479117,366.410896 C63.3861005,366.630822 63.0785621,366.835582 62.7548846,367.013798 L62.4536224,367.167368 L62.1416009,367.311458 L61.9622782,367.387294 L61.8044742,367.447964 L61.4538983,367.582574 C60.9867627,367.768374 60.5178338,367.944695 60.0471117,368.096369 C58.16243,368.733398 56.2499532,369.205482 54.3159578,369.434888 C50.4533466,369.908868 46.5055571,369.525892 42.6411526,367.948487 C40.9483462,367.2451 39.2725755,366.323683 37.6479117,365.117878 C37.8433735,364.803155 38.0433183,364.496016 38.2531259,364.207836 C40.5502498,361.009419 43.5718375,359.287924 46.7799208,358.791193 C49.9960737,358.294461 53.4327934,358.916323 56.8157164,360.579045 Z M73.7190301,332.200381 C73.7093986,332.261744 73.6917407,332.354502 73.6443854,332.48579 C73.562517,332.742657 73.3851354,333.105125 73.1531749,333.456177 C72.6884512,334.173979 72.0318986,334.85325 71.3432407,335.448326 C69.9514775,336.631343 68.3743064,337.551785 66.8340564,338.312397 L66.2240564,338.603514 L65.6357275,338.867516 C65.2368196,339.043042 64.8387143,339.218568 64.4422143,339.392667 C63.6484117,339.723741 62.8562143,340.03769 62.0696354,340.328806 C55.772188,342.633477 49.6697801,343.285635 44.2231222,341.90854 C42.8626617,341.560342 41.5559775,341.012359 40.2886222,340.462948 C39.0188591,339.926381 37.7779907,339.386959 36.5941091,338.694844 C34.7962143,337.645969 33.1235301,336.343081 31.5840828,334.868948 C32.5103196,333.109406 33.5954775,331.566775 34.7809643,330.246763 C36.2658328,328.602811 37.8999907,327.295642 39.5999643,326.256756 C43.0095433,324.190401 46.6599117,323.162932 50.2958328,322.783339 C53.9381749,322.413735 57.5917538,322.697717 61.1377801,323.562503 C62.909188,324.000605 64.6557143,324.587119 66.3428459,325.362002 C68.0259643,326.136885 69.6697538,327.095856 71.1185038,328.348798 C71.8376617,328.970988 72.5134775,329.684508 73.0167275,330.442267 C73.263938,330.816152 73.4718196,331.201453 73.5865959,331.515402 C73.7069907,331.835059 73.730267,332.023428 73.7286617,332.08051 C73.730267,332.114759 73.7310696,332.137592 73.7190301,332.200381 L73.7190301,332.200381 Z" id="Shape" transform="translate(46.998354, 349.053095) rotate(210.000000) translate(-46.998354, -349.053095) "></path>
            <path d="M397.440566,28.3284 C397.301711,27.7956 397.129145,27.3072 396.938921,26.8968 C396.559276,26.0568 396.131474,25.434 395.702066,24.8844 C394.839237,23.8044 393.951526,23.0568 393.059,22.398 C391.270737,21.1044 389.447961,20.2296 387.5995,19.5096 C385.751039,18.7968 383.876895,18.27 381.985092,17.8764 C378.199079,17.1024 374.335211,16.8492 370.439237,17.1792 C368.49125,17.3496 366.536039,17.6652 364.585645,18.1824 C362.63525,18.6948 360.689671,19.4076 358.777,20.3832 C356.866737,21.3648 354.985368,22.6188 353.215566,24.2664 C351.608697,25.77 350.094132,27.618 348.817947,29.8404 C347.602763,28.5468 346.499145,27.18 345.512711,25.7868 C344.086434,23.7684 342.892921,21.708 341.906487,19.7352 C339.936026,15.7788 338.719237,12.276 337.994461,9.834 C337.266474,7.3872 337,6 337,6 C337,6 337.034513,6.3552 337.132434,7.0368 C337.231158,7.7184 337.387671,8.7288 337.650934,10.0248 C337.914197,11.3208 338.275382,12.906 338.782645,14.73 C339.289908,16.5516 339.940842,18.6156 340.814105,20.8188 C341.679342,23.028 342.758079,25.3872 344.104092,27.7728 C345.045579,29.4528 346.136355,31.1256 347.37,32.7444 L347.083461,33.408 L346.681342,34.434 C346.162842,35.8212 345.718987,37.2948 345.380276,38.844 C344.704461,41.934 344.497382,45.3708 344.920368,48.6528 C345.338539,51.9324 346.341026,54.9744 347.661355,57.4812 C348.980882,60.0072 350.583737,62.0664 352.290132,63.7512 C352.821474,64.2732 353.36325,64.7568 353.913053,65.2128 C353.775803,65.7852 353.669855,66.378 353.604842,66.9816 C353.465987,68.328 353.525382,69.6948 353.727645,70.938 C353.925895,72.1872 354.265408,73.3056 354.656289,74.3028 C355.052789,75.2964 355.509487,76.1664 355.989461,76.944 C356.953421,78.498 358.004868,79.7028 359.054711,80.7192 C360.107763,81.732 361.164026,82.5576 362.200224,83.2596 C363.234816,83.97 364.254961,84.5424 365.240592,85.0344 C367.214263,86.016 369.053895,86.688 370.723368,87.1836 C372.391237,87.6888 373.891355,88.002 375.196434,88.2264 C376.501513,88.4508 377.613158,88.5816 378.514513,88.6728 C379.415066,88.7628 380.105329,88.7988 380.570855,88.824 C381.036382,88.8456 381.276368,88.8564 381.276368,88.8564 C381.276368,88.8564 381.039592,88.7964 380.581289,88.68 C380.122987,88.5648 379.443961,88.3776 378.561868,88.1232 C376.800895,87.606 374.222039,86.76 371.058868,85.2504 C369.480092,84.4884 367.761658,83.5308 365.974197,82.2804 C364.197974,81.0192 362.323829,79.4928 360.621447,77.4504 C359.775474,76.4304 358.977658,75.276 358.337961,73.9908 C358.020118,73.3488 357.742408,72.6768 357.532118,71.9892 C357.32825,71.3028 357.180566,70.6044 357.13,69.9276 C357.097895,69.588 357.101105,69.2556 357.109132,68.928 C357.126789,68.6028 357.1605,68.2824 357.208658,67.9644 C357.229526,67.8336 357.256013,67.7016 357.283303,67.5696 C357.414132,67.6452 357.544158,67.7244 357.675789,67.7964 C359.533882,68.844 361.433711,69.606 363.33675,70.1664 C367.146842,71.2656 370.972987,71.5188 374.689974,71.196 C376.548868,71.0412 378.382882,70.7208 380.182382,70.29 C380.633461,70.1868 381.080526,70.0668 381.526789,69.9432 L381.860684,69.852 L382.205013,69.7512 L382.567803,69.6336 L382.936211,69.5004 C383.427421,69.3072 383.926658,69.0792 384.461211,68.7252 C384.728487,68.5452 385.006197,68.3328 385.297553,68.0436 C385.588105,67.7472 385.900329,67.3896 386.203724,66.8112 C386.353013,66.5316 386.496684,66.1764 386.609855,65.784 C386.723829,65.3856 386.797671,64.9296 386.82175,64.4772 C386.871513,63.5556 386.704566,62.7432 386.513539,62.1552 C386.317697,61.5612 386.092158,61.1172 385.873039,60.7464 C385.652316,60.3768 385.431592,60.072 385.213276,59.8008 C384.340013,58.7352 383.489224,58.0716 382.637632,57.468 C380.936855,56.298 379.240092,55.5264 377.544132,54.9228 C374.154618,53.7504 370.771526,53.3076 367.462276,53.6628 C365.809658,53.8476 364.176303,54.2484 362.595921,54.9372 C361.017947,55.6236 359.489737,56.6136 358.110013,57.9684 C357.764882,58.3044 357.431789,58.6692 357.109934,59.0508 C357.028868,59.1468 356.949408,59.2416 356.87075,59.3424 L356.752763,59.49 L356.694171,59.5644 L356.613908,59.6712 L356.417263,59.9364 L356.318539,60.0672 L356.196539,60.2424 C356.095408,60.3864 355.997487,60.5316 355.903579,60.6756 C355.347355,60.228 354.805579,59.748 354.281461,59.2332 C352.839934,57.8124 351.538066,56.1168 350.517118,54.1584 C349.488947,52.206 348.775408,49.9776 348.474421,47.6412 C348.177447,45.3036 348.312289,42.864 348.821961,40.5144 C349.078,39.3396 349.423934,38.1876 349.8405,37.0728 L350.164763,36.2448 L350.232987,36.0852 C351.879987,37.7856 353.719618,39.3408 355.734224,40.6644 C356.999974,41.4792 358.325118,42.2436 359.720895,42.8184 C361.117474,43.398 362.583079,43.716 364.069553,44.0256 C370.029895,45.276 376.544053,44.6664 383.148105,42.6336 C383.973211,42.3756 384.802329,42.1008 385.633053,41.808 C386.047211,41.6544 386.462171,41.5008 386.878737,41.346 L387.513618,41.1072 L388.127632,40.86 C389.842053,40.1448 391.534803,39.3324 393.269289,38.1 C394.132118,37.4652 395.006184,36.7512 395.869816,35.6472 C396.298421,35.0916 396.733447,34.4316 397.101053,33.5172 C397.467053,32.6304 397.751184,31.38 397.693395,30.1044 C397.669316,29.478 397.580224,28.86 397.440566,28.3284 L397.440566,28.3284 Z M377.167805,58.9541503 C378.853438,59.7940429 380.544451,60.906948 382.077661,62.402829 C382.798538,63.1100072 383.497896,63.9423161 384,64.7860006 C383.738189,65.0059273 383.43065,65.2106867 383.106973,65.3889032 L382.805711,65.5424727 L382.493689,65.6865627 L382.314367,65.7623995 L382.156563,65.8230689 L381.805987,65.9576793 C381.338851,66.1434794 380.869922,66.3198 380.3992,66.4714736 C378.514518,67.1085028 376.602042,67.5805869 374.668046,67.8099932 C370.805435,68.2839733 366.857645,67.9009974 362.993241,66.3235918 C361.300435,65.6202055 359.624664,64.6987883 358,63.4929831 C358.195462,63.1782603 358.395407,62.8711213 358.605214,62.5829414 C360.902338,59.3845241 363.923926,57.6630287 367.132009,57.1662976 C370.348162,56.6695665 373.784882,57.2914283 377.167805,58.9541503 Z M394.071118,30.5754865 C394.061487,30.6368493 394.043829,30.7296069 393.996474,30.8608947 C393.914605,31.117762 393.737224,31.4802304 393.505263,31.8312824 C393.040539,32.549084 392.383987,33.2283554 391.695329,33.8234314 C390.303566,35.0064483 388.726395,35.9268896 387.186145,36.6875024 L386.576145,36.9786187 L385.987816,37.2426213 C385.588908,37.4181473 385.190803,37.5936733 384.794303,37.7677723 C384.0005,38.0988458 383.208303,38.4127948 382.421724,38.7039111 C376.124276,41.008582 370.021868,41.6607397 364.575211,40.2836453 C363.21475,39.9354473 361.908066,39.3874637 360.640711,38.8380529 C359.370947,38.3014856 358.130079,37.7620642 356.946197,37.0699493 C355.148303,36.0210743 353.475618,34.7181861 351.936171,33.2440529 C352.862408,31.4845115 353.947566,29.9418804 355.133053,28.6218676 C356.617921,26.9779166 358.252079,25.6707472 359.952053,24.6318614 C363.361632,22.5655063 367.012,21.5380369 370.647921,21.158444 C374.290263,20.7888405 377.943842,21.0728216 381.489868,21.9376083 C383.261276,22.3757099 385.007803,22.9622237 386.694934,23.7371068 C388.378053,24.51199 390.021842,25.4709614 391.470592,26.7239033 C392.18975,27.3460931 392.865566,28.0596135 393.368816,28.8173722 C393.616026,29.1912569 393.823908,29.5765579 393.938684,29.8905069 C394.059079,30.2101641 394.082355,30.3985334 394.08075,30.4556151 C394.082355,30.4898641 394.083158,30.5126967 394.071118,30.5754865 L394.071118,30.5754865 Z" id="Shape" transform="translate(367.350443, 47.428200) rotate(210.000000) translate(-367.350443, -47.428200) "></path>
        </g>
    </g>
</svg>