<?xml version="1.0" encoding="UTF-8" standalone="no"?>
<svg width="80px" height="39px" viewBox="0 0 80 39" version="1.1" xmlns="http://www.w3.org/2000/svg" xmlns:xlink="http://www.w3.org/1999/xlink">
    <!-- Generator: Sketch 39.1 (31720) - http://www.bohemiancoding.com/sketch -->
    <title>Shape</title>
    <desc>Created with Sketch.</desc>
    <defs></defs>
    <g id="Home" stroke="none" stroke-width="1" fill="none" fill-rule="evenodd">
        <g id="home-v2" transform="translate(-1224.000000, -1047.000000)" fill="#0F88FF">
            <path d="M1303.9163,1055.40636 C1303.59117,1053.52348 1302.27252,1051.20588 1297.84199,1050.86082 C1296.87383,1050.78565 1293.88332,1050.77297 1289.74442,1050.75485 C1281.57258,1050.72044 1269.26184,1050.66701 1263.65485,1050.05659 C1259.91083,1048.60571 1255.80362,1047.27166 1250.74366,1047.01535 C1245.63932,1046.75362 1239.29874,1049.87998 1235.23048,1053.20287 C1234.06942,1053.4628 1229.65429,1054.38477 1226.47087,1054.17556 C1225.72641,1054.1339 1225.07523,1054.69451 1225.02723,1055.4435 C1224.97923,1056.19248 1225.54618,1056.83913 1226.29517,1056.88713 C1226.6683,1056.91068 1227.0523,1056.92245 1227.44536,1056.92245 C1228.95692,1056.92245 1230.5672,1056.75852 1231.99,1056.55475 C1231.80796,1056.82283 1231.65038,1057.08456 1231.52268,1057.33725 C1231.18486,1058.00744 1231.45475,1058.82435 1232.12585,1059.16126 C1232.79514,1059.49817 1233.61205,1059.23009 1233.94987,1058.55809 C1235.4732,1055.53225 1244.32972,1049.41447 1250.6069,1049.72873 C1255.81449,1049.99228 1259.85649,1051.45675 1263.87946,1053.0634 C1265.96883,1053.89752 1267.04386,1055.78674 1268.53278,1058.4005 L1268.78908,1058.84971 C1269.02909,1059.26903 1269.40403,1059.80791 1269.8777,1060.48897 C1272.11107,1063.69322 1273.10731,1065.62591 1272.84647,1066.22637 C1272.68617,1066.47181 1272.06307,1067.29325 1270.74442,1067.54955 C1269.07256,1067.87559 1266.90711,1067.15921 1264.49622,1065.47376 C1261.41604,1063.3228 1261.37982,1060.70452 1261.37891,1060.61033 C1261.39703,1059.85953 1260.80291,1059.23734 1260.05302,1059.22013 C1259.48426,1059.19839 1259.00878,1059.52353 1258.79142,1059.99629 C1256.91578,1059.57968 1255.33811,1059.66753 1254.09372,1060.27976 C1253.01779,1060.80776 1252.22533,1061.72158 1251.86035,1062.85095 C1251.80148,1063.03571 1251.74804,1063.24129 1251.71001,1063.46409 C1250.85958,1064.12794 1248.41247,1065.61776 1244.87584,1064.26289 C1244.17485,1063.99481 1243.38964,1064.3444 1243.12066,1065.04538 C1242.85258,1065.74546 1243.20307,1066.53158 1243.90315,1066.80057 C1245.29516,1067.3331 1246.56944,1067.5405 1247.71058,1067.5405 C1248.30651,1067.5405 1248.85263,1067.47167 1249.37248,1067.37566 C1249.31089,1067.51604 1249.24297,1067.65552 1249.19678,1067.80133 C1249.01565,1068.36375 1248.80734,1069.46142 1249.28916,1070.71667 C1248.54742,1071.11335 1247.91254,1071.73826 1247.51043,1072.53072 C1246.5468,1074.42357 1247.11374,1076.73393 1249.02832,1078.70919 C1250.29264,1080.01335 1251.53884,1081.11011 1252.72888,1082.04204 C1248.55828,1081.61004 1242.93047,1080.75418 1239.65919,1079.12217 C1235.47411,1077.03551 1233.37477,1074.19896 1233.41824,1070.69222 C1233.4273,1069.94233 1232.82684,1069.32647 1232.07695,1069.31651 C1231.33158,1069.29025 1230.7112,1069.907 1230.70124,1070.6578 C1230.68584,1071.8877 1230.87694,1073.31141 1231.48373,1074.7804 C1229.80644,1074.63912 1227.36566,1074.53678 1225.1667,1074.85014 C1224.42406,1074.9561 1223.90783,1075.64441 1224.01379,1076.38706 C1224.11975,1077.1297 1224.80625,1077.63959 1225.55071,1077.53997 C1228.87813,1077.0654 1233.07771,1077.68759 1233.11937,1077.69484 C1233.18096,1077.7039 1233.24254,1077.70752 1233.30322,1077.70842 C1234.47334,1079.07236 1236.12347,1080.39373 1238.44741,1081.55298 C1244.19931,1084.42033 1255.76015,1085.06244 1257.69013,1085.15029 C1258.0533,1085.31331 1258.39655,1085.45369 1258.70448,1085.55784 C1259.34025,1085.77339 1260.04124,1085.89022 1260.77664,1085.89022 C1263.14859,1085.89022 1265.87102,1084.6712 1267.86711,1081.64898 C1268.33534,1081.72415 1268.79361,1081.76853 1269.23829,1081.76853 C1271.51243,1081.76853 1273.43153,1080.78951 1274.64875,1078.92021 C1275.62597,1077.4168 1275.76272,1075.94328 1275.68302,1074.89904 C1276.57964,1074.72153 1277.36213,1074.36198 1278.00244,1073.79594 C1279.51853,1072.45646 1279.83913,1070.43954 1279.84185,1068.98413 C1279.84547,1066.82502 1278.84924,1064.44492 1278.02327,1062.84189 C1283.36671,1062.60008 1291.78851,1062.22513 1296.97346,1062.02408 C1300.32714,1061.89456 1302.02889,1060.63478 1302.86573,1059.60141 C1303.80853,1058.43582 1304.18257,1056.94419 1303.9163,1055.40636 L1303.9163,1055.40636 Z M1259.57482,1082.98937 C1257.77254,1082.37623 1254.43969,1080.39373 1250.97732,1076.81996 C1249.89233,1075.70056 1249.51014,1074.58749 1249.92856,1073.76605 C1250.15588,1073.31865 1250.57339,1073.05058 1250.94925,1072.97269 C1251.08147,1073.0868 1251.21732,1073.20092 1251.36676,1073.31413 C1255.17056,1076.19234 1261.18148,1079.31146 1265.09668,1080.83751 C1263.10964,1083.30817 1260.73951,1083.38243 1259.57482,1082.98937 L1259.57482,1082.98937 Z M1272.36738,1077.44216 C1270.88027,1079.72444 1268.05006,1079.02255 1266.90258,1078.61319 C1263.24096,1077.31446 1256.78356,1074.00424 1253.00692,1071.14777 C1251.92193,1070.32814 1251.50985,1069.48225 1251.78246,1068.63635 C1251.98352,1068.01144 1252.49975,1067.52963 1252.96526,1067.28691 C1253.68255,1068.07484 1254.75486,1068.87364 1256.32619,1069.62353 C1260.66434,1071.69479 1268.2638,1074.26689 1272.95606,1074.92169 C1273.03032,1075.48863 1273.01674,1076.44321 1272.36738,1077.44216 L1272.36738,1077.44216 Z M1277.12032,1068.98322 C1277.11941,1069.71863 1276.99715,1071.0572 1276.19744,1071.76362 C1275.65495,1072.24272 1274.79819,1072.41752 1273.64799,1072.27442 C1269.32343,1071.74642 1261.6642,1069.16073 1257.49722,1067.17008 C1255.8471,1066.38215 1253.9787,1065.13776 1254.44603,1063.68507 C1254.54203,1063.3862 1254.76663,1062.97684 1255.29102,1062.71963 C1256.11789,1062.31389 1257.46371,1062.3791 1259.12018,1062.8908 C1259.62645,1064.30636 1260.68879,1066.13037 1262.93938,1067.7017 C1265.45623,1069.45961 1267.79013,1070.34535 1269.90124,1070.34535 C1270.36585,1070.34535 1270.81959,1070.30278 1271.26246,1070.21584 C1273.56467,1069.76844 1274.72845,1068.31303 1275.12242,1067.70804 C1275.94386,1066.44554 1275.59246,1064.83708 1274.6569,1062.99767 C1274.76287,1062.99314 1274.87879,1062.98771 1274.99381,1062.98227 C1275.7917,1064.32538 1277.12394,1066.98351 1277.12032,1068.98322 L1277.12032,1068.98322 Z M1300.74918,1057.89604 C1300.05635,1058.7519 1298.71324,1059.24186 1296.86387,1059.31251 C1289.24992,1059.60866 1274.67502,1060.27704 1273.07289,1060.3504 C1272.76406,1059.88761 1272.44164,1059.41575 1272.10654,1058.93484 C1271.68813,1058.33439 1271.32676,1057.81634 1271.14744,1057.50117 L1270.89295,1057.05468 C1270.06245,1055.59746 1269.28811,1054.24439 1268.33625,1053.10778 C1274.6723,1053.40574 1283.42467,1053.44469 1289.73264,1053.47095 C1293.66052,1053.48816 1296.76243,1053.50084 1297.63188,1053.56876 C1300.88594,1053.82235 1301.13409,1055.25602 1301.23915,1055.86825 C1301.31523,1056.3066 1301.35236,1057.15158 1300.74918,1057.89604 L1300.74918,1057.89604 Z" id="Shape"></path>
        </g>
    </g>
</svg>